<svg id="2de401ad-5d4a-479b-8e59-e5685852e129" data-name="Layer 2" xmlns="http://www.w3.org/2000/svg" viewBox="0 0 318.54 318.99"><defs><style>.\31 5249013-3d02-4c9d-b684-fb1cff67eb2a{fill:#0080ff;}</style></defs><title>digitalocean</title><path class="15249013-3d02-4c9d-b684-fb1cff67eb2a" d="M299.78,190.64c-88,0-159.27,71.41-159.27,159.5,0,0.09,0,.17,0,0.26h61.35c0-.09,0-0.17,0-0.26,0-53.19,43.84-96.31,97.92-96.31s97.92,43.12,97.92,96.31-43.84,96.31-97.92,96.31h-0.62v63.18h0.62c88,0,159.27-71.41,159.27-159.5S387.74,190.64,299.78,190.64Z" transform="translate(-140.51 -190.64)"/><rect class="15249013-3d02-4c9d-b684-fb1cff67eb2a" x="96.58" y="193.88" width="62.07" height="62.07"/><rect class="15249013-3d02-4c9d-b684-fb1cff67eb2a" x="49.38" y="255.79" width="47.16" height="47.16"/><rect class="15249013-3d02-4c9d-b684-fb1cff67eb2a" x="8.97" y="215.37" width="40.42" height="40.42"/></svg>