<svg id="a468e868-b0ef-483e-b633-7c960fda5ef9" data-name="Layer 1" xmlns="http://www.w3.org/2000/svg" viewBox="0 0 380.42 380.5"><defs><style>.f4cb352d-46ff-4752-93b6-566edfdc6fdb{fill:#8eb33f;}.\35 d7a6f3b-cae1-41aa-af10-2da4aa2dc8d5{fill:#be1919;}</style></defs><title>semaphor</title><path class="f4cb352d-46ff-4752-93b6-566edfdc6fdb" d="M363.34,395.39a60.21,60.21,0,0,0-5.78-24.93c-0.41-.85-1.42-1.63-1.1-2.54s1.21-1.32,1.86-2q7.29-7.29,14.57-14.58,9.9-9.93,19.79-19.88c4.43-4.44,8.91-8.83,13.35-13.26,3.65-3.64,7.25-7.32,10.89-11,1.64-1.64,3.32-3.23,4.95-4.88a2.44,2.44,0,0,1,1.5-.64c6.51-1,13-2,19.51-3.2,9.7-1.79,19.41-3.52,29.11-5.29a1.57,1.57,0,0,1,1.68.56c4.91,5.81,9.53,11.82,13,18.66A101.18,101.18,0,0,1,493,328.35c1.94,6.35,2.67,12.88,3.35,19.45,0.25,2.39-.57,3.52-2.41,4.75-7.82,5.2-15.53,10.57-23.28,15.87-1.81,1.24-3.62,2.5-5.47,3.68a1.29,1.29,0,0,0-.71,1.51,159.82,159.82,0,0,1,.9,35.41c-0.3,3.34-.62,6.69-1.17,10-0.16,1,.65.45,1,0.7,1.24,1,2.59,1.86,3.91,2.78l17.34,12c3.08,2.14,6.14,4.33,9.24,6.45a1.48,1.48,0,0,1,.67,1.59,98.62,98.62,0,0,1-2.43,16.82A88.8,88.8,0,0,1,481.78,487a108.86,108.86,0,0,1-9,11.37,1.13,1.13,0,0,1-1.23.44q-16.07-3.07-32.15-6.11c-1.61-.31-3.22-0.58-4.81-1a1,1,0,0,0-1.13.59,164.8,164.8,0,0,1-11.94,14.06,158,158,0,0,1-19.6,17.42,1.47,1.47,0,0,0-.69,1.8c1.21,6,2.26,12.09,3.36,18.14s2.16,12,3.28,18a1.88,1.88,0,0,1-.73,2,93,93,0,0,1-21.71,14.39,84.08,84.08,0,0,1-29.25,7.83c-1.63.11-3.27,0.26-4.9,0.42a1.33,1.33,0,0,1-1.39-.68q-8.15-12-16.33-24c-1.62-2.38-3.25-4.74-4.83-7.15a0.83,0.83,0,0,0-1-.27q-6.54.9-13.12,1.26a165.87,165.87,0,0,1-21.57-.2c-3.66-.27-7.33-0.63-11-1.25-0.44-.08-0.33.09-0.46,0.44a12.5,12.5,0,0,1-1.53,2.41q-8.29,12-16.58,24c-1.12,1.61-2.26,3.19-3.4,4.79a1.06,1.06,0,0,1-1.06.58A99.52,99.52,0,0,1,242.17,584a87.25,87.25,0,0,1-29.94-13.59c-3.28-2.36-6.36-5-9.42-7.61a1.23,1.23,0,0,1-.46-1.34c2.35-12.36,4.71-24.71,7-37.08,0.58-3.14.93-6.32,1.33-9.49a4.12,4.12,0,0,1,1.31-2.67c3.56-3.45,7-7,10.51-10.51q6.87-6.86,13.75-13.7c3.5-3.5,7-7,10.49-10.53q6.87-6.86,13.75-13.7,5.3-5.3,10.56-10.63c2.14-2.15,4.3-4.29,6.41-6.46a1.05,1.05,0,0,1,1.49,0,55.22,55.22,0,0,0,17.32,5.75A57.8,57.8,0,0,0,363.1,399C363.17,397.78,363.26,396.58,363.34,395.39Z" transform="translate(-115.99 -205.99)"/><path class="5d7a6f3b-cae1-41aa-af10-2da4aa2dc8d5" d="M249.32,395.65a59.1,59.1,0,0,0,6.43,27.79,1.32,1.32,0,0,1-.28,1.84q-10.34,10.26-20.62,20.58-10,10-19.89,20t-19.87,19.8c-1.75,1.75-3.52,3.49-5.24,5.26a2.76,2.76,0,0,1-1.79.83c-7.86.92-15.63,2.4-23.39,3.94-4.55.9-9.12,1.69-13.68,2.55-3.22.6-6.44,1.22-9.65,1.87a1.82,1.82,0,0,1-2-.69,93.37,93.37,0,0,1-14.5-21.2,91.5,91.5,0,0,1-8.79-34.38,1.53,1.53,0,0,1,.77-1.56q11.26-7.74,22.48-15.54c2.56-1.77,5-3.75,7.71-5.28,1.32-.75,1.14-1.46,1-2.53a154.8,154.8,0,0,1-1.31-30,122.62,122.62,0,0,1,1.37-14.07,1,1,0,0,0-.59-1.2c-5.7-3.84-11.35-7.74-17-11.62q-6.88-4.7-13.78-9.37a1.35,1.35,0,0,1-.7-1.36A92,92,0,0,1,119.67,329a86,86,0,0,1,13.42-26.74q2.8-3.68,5.78-7.19a1.32,1.32,0,0,1,1.42-.57c12.1,2.21,24.22,4.36,36.31,6.61a2,2,0,0,0,2.36-.92,153.4,153.4,0,0,1,20.64-22.48c3.39-3,6.9-5.95,10.55-8.68a1.21,1.21,0,0,0,.5-1.46c-1.54-8-3-16-4.53-24-0.77-4.12-1.54-8.24-2.34-12.36a1.54,1.54,0,0,1,.5-1.68,91.53,91.53,0,0,1,18.39-13.15A88.6,88.6,0,0,1,247,207.76c4.25-.81,8.54-1.26,12.84-1.65a1.69,1.69,0,0,1,1.81.76c6.94,10.07,14,20.07,20.81,30.21a1.94,1.94,0,0,0,2.44.94,151.23,151.23,0,0,1,24.51-1.55,131.26,131.26,0,0,1,18.52,1.38A2.66,2.66,0,0,0,331,236.4c5.4-8,10.87-16,16.32-24,1.31-1.91,2.65-3.8,3.93-5.73a1.33,1.33,0,0,1,1.36-.7,91.28,91.28,0,0,1,22.88,3.88,85.66,85.66,0,0,1,26.15,13.29c2.45,1.87,4.85,3.79,7.19,5.78a1.18,1.18,0,0,1,.52,1.22q-2,10.49-3.87,21c-0.92,5.07-1.85,10.14-2.71,15.22-0.72,4.25-1.35,8.52-2,12.78a2.75,2.75,0,0,1-.81,1.67q-5.29,5.22-10.55,10.47l-24.24,24.24L340.76,340c-1.81,1.81-3.65,3.58-5.41,5.44a1.36,1.36,0,0,1-1.94.25,57.68,57.68,0,0,0-70.12,13.73,57.88,57.88,0,0,0-12.08,23A56,56,0,0,0,249.32,395.65Z" transform="translate(-115.99 -205.99)"/></svg>